<svg xmlns="http://www.w3.org/2000/svg" width="900" height="1800" viewBox="0 0 900 1800"><defs>
    <linearGradient id="paper" x2="0" y2="1"><stop stop-color="#f8f2e5"/><stop offset="1" stop-color="#eae3d2"/></linearGradient>
    <linearGradient id="far" x2="0" y2="1"><stop stop-color="#8c9890" stop-opacity=".37"/><stop offset="1" stop-color="#d1d1be" stop-opacity=".03"/></linearGradient>
    <linearGradient id="near" x2="0" y2="1"><stop stop-color="#657875" stop-opacity=".55"/><stop offset=".64" stop-color="#8b9381" stop-opacity=".27"/><stop offset="1" stop-color="#bdc0aa" stop-opacity=".015"/></linearGradient>
    <linearGradient id="mist" x2="0" y2="1"><stop stop-color="#f9f4e8" stop-opacity="0"/><stop offset=".53" stop-color="#f9f4e8" stop-opacity=".9"/><stop offset="1" stop-color="#f9f4e8" stop-opacity="0"/></linearGradient>
    <radialGradient id="light"><stop stop-color="#fffaf0" stop-opacity=".93"/><stop offset=".62" stop-color="#fbf5e9" stop-opacity=".76"/><stop offset="1" stop-color="#f6efdf" stop-opacity="0"/></radialGradient>
    <filter id="brush" x="-10%" y="-5%" width="120%" height="110%"><feTurbulence type="fractalNoise" baseFrequency=".015 .035" numOctaves="2" seed="12" result="grain"/><feDisplacementMap in="SourceGraphic" in2="grain" scale="9" xChannelSelector="R" yChannelSelector="G"/></filter>
    <filter id="soft"><feGaussianBlur stdDeviation="3"/></filter>
    <filter id="texture"><feTurbulence type="fractalNoise" baseFrequency=".7" numOctaves="3" stitchTiles="stitch"/><feColorMatrix type="saturate" values="0"/></filter>
    </defs><rect width="900" height="1800" fill="url(#paper)"/><path d="M -45.0,1530.0 L -45.0,1296.0 C -21.1,1296.0 5.4,1098.0 18.0,1098.0 C 38.5,1098.0 61.2,972.0 72.0,972.0 C 92.5,972.0 115.2,1062.0 126.0,1062.0 C 156.8,1062.0 190.8,882.0 207.0,882.0 C 230.9,882.0 257.4,1116.0 270.0,1116.0 C 293.9,1116.0 320.4,1080.0 333.0,1080.0 C 360.4,1080.0 390.6,1224.0 405.0,1224.0 C 432.4,1224.0 462.6,1188.0 477.0,1188.0 C 500.9,1188.0 527.4,1278.0 540.0,1278.0 C 570.8,1278.0 604.8,1026.0 621.0,1026.0 C 634.7,1026.0 649.8,1080.0 657.0,1080.0 C 691.2,1080.0 729.0,900.0 747.0,900.0 C 770.9,900.0 797.4,1008.0 810.0,1008.0 C 861.3,1008.0 918.0,810.0 945.0,810.0 L 945.0,1530.0 Z" fill="url(#far)" opacity="0.75" filter="url(#brush)"/><path d="M -36.0,1566.0 L -36.0,1224.0 C -22.3,1224.0 -7.2,882.0 0.0,882.0 C 18.8,882.0 39.6,702.0 49.5,702.0 C 61.5,702.0 74.7,828.0 81.0,828.0 C 96.4,828.0 113.4,612.0 121.5,612.0 C 130.1,612.0 139.5,810.0 144.0,810.0 C 157.7,810.0 172.8,756.0 180.0,756.0 C 193.7,756.0 208.8,1080.0 216.0,1080.0 C 243.4,1080.0 273.6,1314.0 288.0,1314.0 C 308.5,1314.0 331.2,1422.0 342.0,1422.0 L 342.0,1566.0 Z" fill="url(#far)" opacity="0.95" filter="url(#brush)"/><path d="M 558.0,1620.0 L 558.0,1422.0 C 592.2,1422.0 630.0,1242.0 648.0,1242.0 C 668.5,1242.0 691.2,936.0 702.0,936.0 C 719.1,936.0 738.0,810.0 747.0,810.0 C 757.3,810.0 768.6,522.0 774.0,522.0 C 791.1,522.0 810.0,756.0 819.0,756.0 C 829.3,756.0 840.6,630.0 846.0,630.0 C 883.6,630.0 925.2,846.0 945.0,846.0 L 945.0,1620.0 Z" fill="url(#far)" opacity="0.85" filter="url(#brush)"/><path d="M -31.5,1584.0 L -31.5,1260.0 C -19.5,1260.0 -6.3,1080.0 0.0,1080.0 C 13.7,1080.0 28.8,1008.0 36.0,1008.0 C 46.3,1008.0 57.6,756.0 63.0,756.0 C 73.3,756.0 84.6,864.0 90.0,864.0 C 102.0,864.0 115.2,774.0 121.5,774.0 C 136.9,774.0 153.9,1170.0 162.0,1170.0 C 172.3,1170.0 183.6,1134.0 189.0,1134.0 C 206.1,1134.0 225.0,1314.0 234.0,1314.0 C 257.9,1314.0 284.4,1440.0 297.0,1440.0 L 297.0,1584.0 Z" fill="url(#near)" opacity="0.67" filter="url(#brush)"/><path d="M 612.0,1638.0 L 612.0,1512.0 C 639.4,1512.0 669.6,1332.0 684.0,1332.0 C 697.7,1332.0 712.8,1224.0 720.0,1224.0 C 730.3,1224.0 741.6,1260.0 747.0,1260.0 C 764.1,1260.0 783.0,900.0 792.0,900.0 C 802.3,900.0 813.6,720.0 819.0,720.0 C 829.3,720.0 840.6,792.0 846.0,792.0 C 859.7,792.0 874.8,630.0 882.0,630.0 C 902.5,630.0 925.2,864.0 936.0,864.0 L 936.0,1638.0 Z" fill="url(#near)" opacity="0.58" filter="url(#brush)"/><path d="M 95.5 1209.9 q -10.3 80.8 -8.2 161.6" fill="none" stroke="#667975" stroke-width="0.66" opacity="0.23"/><path d="M 44.1 1396.8 q -5.0 71.1 -4.0 142.1" fill="none" stroke="#667975" stroke-width="0.67" opacity="0.12"/><path d="M 78.3 972.8 q 8.8 70.8 7.0 141.5" fill="none" stroke="#667975" stroke-width="0.78" opacity="0.11"/><path d="M 104.8 1305.1 q 7.5 78.1 6.0 156.1" fill="none" stroke="#667975" stroke-width="0.71" opacity="0.12"/><path d="M 109.3 1349.7 q -9.9 31.7 -7.9 63.3" fill="none" stroke="#667975" stroke-width="1.30" opacity="0.23"/><path d="M 72.2 973.0 q 13.5 46.5 10.8 93.0" fill="none" stroke="#667975" stroke-width="1.65" opacity="0.10"/><path d="M 91.7 1370.0 q -4.1 41.6 -3.3 83.2" fill="none" stroke="#667975" stroke-width="0.91" opacity="0.21"/><path d="M 80.7 1316.7 q -8.4 82.2 -6.7 164.4" fill="none" stroke="#667975" stroke-width="1.55" opacity="0.11"/><path d="M 45.8 1005.4 q 5.8 62.4 4.6 124.8" fill="none" stroke="#667975" stroke-width="0.87" opacity="0.14"/><path d="M 80.6 1077.4 q -7.1 63.4 -5.7 126.9" fill="none" stroke="#667975" stroke-width="1.01" opacity="0.24"/><path d="M 10.8 1057.9 q -12.7 43.9 -10.2 87.9" fill="none" stroke="#667975" stroke-width="1.67" opacity="0.17"/><path d="M 78.5 1192.2 q 15.7 43.5 12.5 86.9" fill="none" stroke="#667975" stroke-width="0.98" opacity="0.16"/><path d="M 28.0 1399.9 q 16.0 67.0 12.8 134.0" fill="none" stroke="#667975" stroke-width="1.15" opacity="0.23"/><path d="M 79.0 1286.2 q -2.9 44.2 -2.3 88.4" fill="none" stroke="#667975" stroke-width="1.45" opacity="0.13"/><path d="M 49.0 1093.0 q 1.7 69.9 1.4 139.8" fill="none" stroke="#667975" stroke-width="1.91" opacity="0.18"/><path d="M 105.5 1049.5 q 8.8 90.1 7.0 180.3" fill="none" stroke="#667975" stroke-width="0.90" opacity="0.17"/><path d="M 94.5 1374.1 q 1.0 28.8 0.8 57.6" fill="none" stroke="#667975" stroke-width="1.39" opacity="0.13"/><path d="M 12.3 1033.1 q -1.2 33.6 -0.9 67.1" fill="none" stroke="#667975" stroke-width="1.27" opacity="0.19"/><path d="M 120.3 1232.6 q 8.3 22.9 6.7 45.7" fill="none" stroke="#667975" stroke-width="1.24" opacity="0.17"/><path d="M 102.6 1389.1 q -13.4 66.6 -10.8 133.3" fill="none" stroke="#667975" stroke-width="1.58" opacity="0.10"/><path d="M 62.9 1359.0 q 12.3 48.7 9.9 97.5" fill="none" stroke="#667975" stroke-width="0.64" opacity="0.21"/><path d="M 96.3 1337.6 q -6.3 51.4 -5.0 102.8" fill="none" stroke="#667975" stroke-width="0.85" opacity="0.24"/><path d="M 24.4 968.7 q -2.5 27.6 -2.0 55.2" fill="none" stroke="#667975" stroke-width="1.24" opacity="0.16"/><path d="M 6.5 1166.5 q 11.0 70.5 8.8 141.1" fill="none" stroke="#667975" stroke-width="1.47" opacity="0.23"/><path d="M 50.4 1309.5 q 0.9 82.4 0.8 164.8" fill="none" stroke="#667975" stroke-width="0.72" opacity="0.23"/><path d="M 88.4 1234.2 q -4.0 74.2 -3.2 148.5" fill="none" stroke="#667975" stroke-width="1.65" opacity="0.13"/><path d="M 81.7 1229.2 q 10.5 60.6 8.4 121.3" fill="none" stroke="#667975" stroke-width="0.66" opacity="0.19"/><path d="M 108.4 1388.8 q 7.5 51.6 6.0 103.3" fill="none" stroke="#667975" stroke-width="1.55" opacity="0.21"/><path d="M 59.1 1335.6 q -10.4 62.1 -8.3 124.2" fill="none" stroke="#667975" stroke-width="1.09" opacity="0.19"/><path d="M 52.3 1048.1 q -8.0 54.0 -6.4 107.9" fill="none" stroke="#667975" stroke-width="1.03" opacity="0.17"/><path d="M 106.5 1388.8 q 15.0 33.1 12.0 66.2" fill="none" stroke="#667975" stroke-width="0.80" opacity="0.19"/><path d="M 72.7 1343.0 q -4.9 26.5 -3.9 53.1" fill="none" stroke="#667975" stroke-width="0.64" opacity="0.16"/><path d="M 114.4 1327.3 q 11.0 64.1 8.8 128.1" fill="none" stroke="#667975" stroke-width="1.13" opacity="0.18"/><path d="M 26.4 1410.4 q -9.7 55.2 -7.8 110.4" fill="none" stroke="#667975" stroke-width="1.33" opacity="0.14"/><path d="M 94.8 1026.8 q -0.9 53.1 -0.7 106.2" fill="none" stroke="#667975" stroke-width="1.05" opacity="0.24"/><path d="M 76.6 1254.3 q 0.1 56.2 0.1 112.4" fill="none" stroke="#667975" stroke-width="0.64" opacity="0.12"/><path d="M 93.5 1199.1 q -5.6 89.9 -4.5 179.7" fill="none" stroke="#667975" stroke-width="1.86" opacity="0.15"/><path d="M 100.1 1102.2 q -9.2 62.2 -7.3 124.3" fill="none" stroke="#667975" stroke-width="0.88" opacity="0.23"/><path d="M 10.0 1105.1 q 15.7 30.6 12.5 61.3" fill="none" stroke="#667975" stroke-width="1.54" opacity="0.15"/><path d="M 76.4 1034.9 q -15.7 29.9 -12.6 59.7" fill="none" stroke="#667975" stroke-width="0.73" opacity="0.20"/><path d="M 30.5 1387.4 q -0.7 29.4 -0.6 58.8" fill="none" stroke="#667975" stroke-width="0.72" opacity="0.15"/><path d="M 74.9 1038.4 q 2.2 30.4 1.8 60.7" fill="none" stroke="#667975" stroke-width="1.30" opacity="0.21"/><path d="M 83.1 1287.3 q -13.8 61.1 -11.1 122.3" fill="none" stroke="#667975" stroke-width="1.76" opacity="0.21"/><path d="M 97.7 1142.6 q 10.9 28.0 8.7 55.9" fill="none" stroke="#667975" stroke-width="1.82" opacity="0.19"/><path d="M 71.9 1156.2 q -14.3 67.7 -11.4 135.3" fill="none" stroke="#667975" stroke-width="1.14" opacity="0.18"/><path d="M 899.3 1054.6 q 4.9 50.9 4.0 101.8" fill="none" stroke="#667975" stroke-width="1.54" opacity="0.11"/><path d="M 906.6 1060.9 q 2.2 65.1 1.8 130.1" fill="none" stroke="#667975" stroke-width="1.63" opacity="0.12"/><path d="M 837.7 1077.3 q 11.2 57.5 9.0 114.9" fill="none" stroke="#667975" stroke-width="1.65" opacity="0.15"/><path d="M 792.3 1241.7 q -7.9 28.4 -6.3 56.8" fill="none" stroke="#667975" stroke-width="1.66" opacity="0.12"/><path d="M 872.6 1303.0 q -12.3 82.7 -9.8 165.4" fill="none" stroke="#667975" stroke-width="1.03" opacity="0.15"/><path d="M 867.8 1323.7 q 12.8 22.6 10.2 45.1" fill="none" stroke="#667975" stroke-width="1.02" opacity="0.17"/><path d="M 851.1 1050.9 q -8.1 82.4 -6.4 164.7" fill="none" stroke="#667975" stroke-width="1.31" opacity="0.11"/><path d="M 829.4 1345.7 q 9.4 53.1 7.5 106.1" fill="none" stroke="#667975" stroke-width="1.79" opacity="0.11"/><path d="M 889.1 1186.0 q -10.2 90.9 -8.2 181.8" fill="none" stroke="#667975" stroke-width="1.50" opacity="0.16"/><path d="M 877.0 1036.3 q 11.6 92.1 9.2 184.2" fill="none" stroke="#667975" stroke-width="0.80" opacity="0.22"/><path d="M 864.9 1123.0 q 2.5 48.8 2.0 97.7" fill="none" stroke="#667975" stroke-width="1.84" opacity="0.20"/><path d="M 898.6 1132.7 q -11.7 49.4 -9.4 98.7" fill="none" stroke="#667975" stroke-width="0.80" opacity="0.21"/><path d="M 825.5 1242.0 q -0.8 32.5 -0.6 65.0" fill="none" stroke="#667975" stroke-width="0.75" opacity="0.20"/><path d="M 893.4 1180.5 q 6.4 57.1 5.1 114.1" fill="none" stroke="#667975" stroke-width="1.74" opacity="0.21"/><path d="M 796.0 1221.4 q -13.8 69.7 -11.1 139.5" fill="none" stroke="#667975" stroke-width="1.96" opacity="0.19"/><path d="M 805.5 1317.1 q -0.6 56.7 -0.5 113.3" fill="none" stroke="#667975" stroke-width="1.17" opacity="0.22"/><path d="M 814.1 1300.1 q -2.0 26.6 -1.6 53.2" fill="none" stroke="#667975" stroke-width="1.91" opacity="0.21"/><path d="M 840.5 1389.0 q -0.5 28.9 -0.4 57.8" fill="none" stroke="#667975" stroke-width="1.32" opacity="0.13"/><path d="M 857.2 1393.2 q -12.2 30.0 -9.8 60.0" fill="none" stroke="#667975" stroke-width="1.06" opacity="0.11"/><path d="M 904.7 1335.4 q -13.0 74.7 -10.4 149.5" fill="none" stroke="#667975" stroke-width="0.63" opacity="0.17"/><path d="M 872.5 1303.7 q -14.7 94.0 -11.7 187.9" fill="none" stroke="#667975" stroke-width="1.81" opacity="0.11"/><path d="M 822.0 1010.3 q 12.6 81.7 10.0 163.5" fill="none" stroke="#667975" stroke-width="1.44" opacity="0.17"/><path d="M 890.9 1363.5 q -15.2 29.7 -12.1 59.3" fill="none" stroke="#667975" stroke-width="1.62" opacity="0.11"/><path d="M 852.0 1191.6 q -10.6 34.9 -8.5 69.7" fill="none" stroke="#667975" stroke-width="0.81" opacity="0.20"/><path d="M 892.8 1018.5 q -0.0 36.9 -0.0 73.8" fill="none" stroke="#667975" stroke-width="0.65" opacity="0.21"/><path d="M 899.0 1264.8 q 3.7 31.4 2.9 62.9" fill="none" stroke="#667975" stroke-width="1.06" opacity="0.17"/><path d="M 810.1 1106.7 q 0.2 55.4 0.1 110.9" fill="none" stroke="#667975" stroke-width="0.71" opacity="0.20"/><path d="M 798.6 1409.4 q -5.7 25.4 -4.6 50.8" fill="none" stroke="#667975" stroke-width="1.89" opacity="0.22"/><path d="M 848.7 962.9 q 14.7 30.9 11.8 61.7" fill="none" stroke="#667975" stroke-width="1.63" opacity="0.20"/><path d="M 863.6 1323.9 q -5.9 39.1 -4.7 78.2" fill="none" stroke="#667975" stroke-width="0.81" opacity="0.15"/><path d="M 907.4 1163.4 q 2.2 55.5 1.7 111.1" fill="none" stroke="#667975" stroke-width="1.93" opacity="0.12"/><path d="M 887.6 1074.8 q 12.0 41.3 9.6 82.7" fill="none" stroke="#667975" stroke-width="1.68" opacity="0.21"/><path d="M 795.1 1003.1 q 6.2 50.8 5.0 101.6" fill="none" stroke="#667975" stroke-width="0.65" opacity="0.21"/><path d="M 888.0 1206.0 q -10.9 47.5 -8.7 95.0" fill="none" stroke="#667975" stroke-width="1.23" opacity="0.10"/><path d="M 825.2 1304.9 q 12.4 85.8 9.9 171.6" fill="none" stroke="#667975" stroke-width="0.80" opacity="0.12"/><path d="M 880.2 1031.3 q 12.8 61.7 10.2 123.5" fill="none" stroke="#667975" stroke-width="2.00" opacity="0.20"/><path d="M 848.1 1362.9 q 7.9 58.3 6.3 116.6" fill="none" stroke="#667975" stroke-width="1.51" opacity="0.17"/><path d="M 830.5 1203.2 q -5.1 59.8 -4.1 119.5" fill="none" stroke="#667975" stroke-width="1.02" opacity="0.23"/><path d="M 895.0 1094.9 q 11.7 26.4 9.4 52.8" fill="none" stroke="#667975" stroke-width="0.79" opacity="0.23"/><path d="M 900.7 1277.4 q -1.1 80.9 -0.9 161.7" fill="none" stroke="#667975" stroke-width="1.91" opacity="0.21"/><path d="M 854.7 1276.1 q -4.8 48.9 -3.8 97.8" fill="none" stroke="#667975" stroke-width="1.55" opacity="0.23"/><path d="M 842.2 1215.1 q 7.7 90.2 6.2 180.3" fill="none" stroke="#667975" stroke-width="1.78" opacity="0.23"/><path d="M 906.2 1146.2 q 3.0 32.6 2.4 65.1" fill="none" stroke="#667975" stroke-width="0.86" opacity="0.21"/><path d="M 865.9 1362.4 q -15.5 72.9 -12.4 145.7" fill="none" stroke="#667975" stroke-width="0.70" opacity="0.17"/><path d="M 878.5 1170.8 q 12.0 33.0 9.6 66.0" fill="none" stroke="#667975" stroke-width="1.59" opacity="0.19"/><rect y="1260.0" width="900" height="324.0" fill="url(#mist)"/><path d="M -36.0,1872.0 L -36.0,1692.0 C -6.9,1692.0 25.2,1596.6 40.5,1596.6 C 64.4,1596.6 90.9,1584.0 103.5,1584.0 C 125.7,1584.0 150.3,1674.0 162.0,1674.0 C 206.5,1674.0 255.6,1733.4 279.0,1733.4 L 279.0,1872.0 Z" fill="#82917f" opacity="0.16" filter="url(#brush)"/><path d="M 585.0,1854.0 L 585.0,1764.0 C 626.0,1764.0 671.4,1683.0 693.0,1683.0 C 723.8,1683.0 757.8,1638.0 774.0,1638.0 C 797.9,1638.0 824.4,1548.0 837.0,1548.0 C 867.8,1548.0 901.8,1557.0 918.0,1557.0 L 918.0,1854.0 Z" fill="#778a7c" opacity="0.17" filter="url(#brush)"/><path d="M554.0 1703.2q20.9 -1 41.7 0" fill="none" stroke="#819086" stroke-width=".75" opacity=".15"/><path d="M425.6 1713.6q25.2 -1 50.4 0" fill="none" stroke="#819086" stroke-width=".75" opacity=".15"/><path d="M503.8 1493.8q14.5 -1 29.0 0" fill="none" stroke="#819086" stroke-width=".75" opacity=".15"/><path d="M314.7 1682.6q30.1 -1 60.2 0" fill="none" stroke="#819086" stroke-width=".75" opacity=".15"/><path d="M493.8 1603.4q15.8 -1 31.6 0" fill="none" stroke="#819086" stroke-width=".75" opacity=".15"/><path d="M348.8 1468.9q36.4 -1 72.9 0" fill="none" stroke="#819086" stroke-width=".75" opacity=".15"/><path d="M524.5 1504.4q9.1 -1 18.2 0" fill="none" stroke="#819086" stroke-width=".75" opacity=".15"/><path d="M512.5 1548.3q18.2 -1 36.5 0" fill="none" stroke="#819086" stroke-width=".75" opacity=".15"/><path d="M713.6 1712.7q29.8 -1 59.6 0" fill="none" stroke="#819086" stroke-width=".75" opacity=".15"/><path d="M294.8 1612.7q16.4 -1 32.8 0" fill="none" stroke="#819086" stroke-width=".75" opacity=".15"/><path d="M259.4 1459.6q34.1 -1 68.2 0" fill="none" stroke="#819086" stroke-width=".75" opacity=".15"/><path d="M178.3 1593.9q23.7 -1 47.4 0" fill="none" stroke="#819086" stroke-width=".75" opacity=".15"/><path d="M503.7 1691.8q31.2 -1 62.5 0" fill="none" stroke="#819086" stroke-width=".75" opacity=".15"/><path d="M94.3 1453.5q8.2 -1 16.4 0" fill="none" stroke="#819086" stroke-width=".75" opacity=".15"/><path d="M338.8 1778.7q7.7 -1 15.5 0" fill="none" stroke="#819086" stroke-width=".75" opacity=".15"/><path d="M603.6 1767.5q16.4 -1 32.9 0" fill="none" stroke="#819086" stroke-width=".75" opacity=".15"/><path d="M796.8 1622.7q32.9 -1 65.8 0" fill="none" stroke="#819086" stroke-width=".75" opacity=".15"/><path d="M469.6 1474.7q25.7 -1 51.5 0" fill="none" stroke="#819086" stroke-width=".75" opacity=".15"/><path d="M139.9 1467.5q32.7 -1 65.5 0" fill="none" stroke="#819086" stroke-width=".75" opacity=".15"/><path d="M235.5 1762.2q4.9 -1 9.8 0" fill="none" stroke="#819086" stroke-width=".75" opacity=".15"/><path d="M557.0 1739.4q30.4 -1 60.7 0" fill="none" stroke="#819086" stroke-width=".75" opacity=".15"/><path d="M224.2 1778.5q25.2 -1 50.3 0" fill="none" stroke="#819086" stroke-width=".75" opacity=".15"/><path d="M245.2 1739.4q19.1 -1 38.3 0" fill="none" stroke="#819086" stroke-width=".75" opacity=".15"/><path d="M582.9 1747.4q36.5 -1 73.0 0" fill="none" stroke="#819086" stroke-width=".75" opacity=".15"/><path d="M125.0 1615.4q8.9 -1 17.9 0" fill="none" stroke="#819086" stroke-width=".75" opacity=".15"/><path d="M223.5 1560.0q24.3 -1 48.5 0" fill="none" stroke="#819086" stroke-width=".75" opacity=".15"/><path d="M280.7 1699.5q31.8 -1 63.6 0" fill="none" stroke="#819086" stroke-width=".75" opacity=".15"/><path d="M674.5 1471.6q31.4 -1 62.8 0" fill="none" stroke="#819086" stroke-width=".75" opacity=".15"/><path d="M649.6 1458.3q12.6 -1 25.2 0" fill="none" stroke="#819086" stroke-width=".75" opacity=".15"/><path d="M803.4 1744.9q12.2 -1 24.4 0" fill="none" stroke="#819086" stroke-width=".75" opacity=".15"/><path d="M439.4 1761.3q6.8 -1 13.6 0" fill="none" stroke="#819086" stroke-width=".75" opacity=".15"/><path d="M588.8 1745.1q21.7 -1 43.5 0" fill="none" stroke="#819086" stroke-width=".75" opacity=".15"/><path d="M381.2 1563.1q23.0 -1 46.1 0" fill="none" stroke="#819086" stroke-width=".75" opacity=".15"/><path d="M704.0 1763.4q10.6 -1 21.1 0" fill="none" stroke="#819086" stroke-width=".75" opacity=".15"/><path d="M791.8 1474.2q14.7 -1 29.5 0" fill="none" stroke="#819086" stroke-width=".75" opacity=".15"/><path d="M578.1 1464.2q32.6 -1 65.3 0" fill="none" stroke="#819086" stroke-width=".75" opacity=".15"/><path d="M215.3 1480.8q31.0 -1 62.0 0" fill="none" stroke="#819086" stroke-width=".75" opacity=".15"/><path d="M428.1 1517.0q22.1 -1 44.1 0" fill="none" stroke="#819086" stroke-width=".75" opacity=".15"/><path d="M605.9 1651.4q27.6 -1 55.3 0" fill="none" stroke="#819086" stroke-width=".75" opacity=".15"/><path d="M722.2 1575.7q14.7 -1 29.5 0" fill="none" stroke="#819086" stroke-width=".75" opacity=".15"/><path d="M724.8 1618.6q24.4 -1 48.7 0" fill="none" stroke="#819086" stroke-width=".75" opacity=".15"/><path d="M681.4 1592.5q29.1 -1 58.3 0" fill="none" stroke="#819086" stroke-width=".75" opacity=".15"/><path d="M93.8 1775.2q16.5 -1 33.1 0" fill="none" stroke="#819086" stroke-width=".75" opacity=".15"/><path d="M413.0 1530.5q31.5 -1 62.9 0" fill="none" stroke="#819086" stroke-width=".75" opacity=".15"/><path d="M717.8 1728.9q27.4 -1 54.8 0" fill="none" stroke="#819086" stroke-width=".75" opacity=".15"/><path d="M514.1 1713.1q17.4 -1 34.8 0" fill="none" stroke="#819086" stroke-width=".75" opacity=".15"/><path d="M496.4 1773.3q30.8 -1 61.6 0" fill="none" stroke="#819086" stroke-width=".75" opacity=".15"/><g transform="translate(12.6 1701.0) scale(1.280)" opacity="0.4"><path d="M0 0 C -7 -48 8 -75 2 -115 C -1 -136 -5 -144 -1 -169" fill="none" stroke="#50695f" stroke-width="5.2" stroke-linecap="round"/><path d="M1 -45Q-13 -60 2.0 -64" fill="none" stroke="#546c61" stroke-width="2.6"/><ellipse cx="-20.2" cy="-68.5" rx="10.6" ry="4.2" fill="#5b7063" opacity="0.46"/><ellipse cx="-36.2" cy="-66.1" rx="13.9" ry="3.7" fill="#5b7063" opacity="0.46"/><ellipse cx="-8.3" cy="-68.5" rx="13.8" ry="4.4" fill="#5b7063" opacity="0.30"/><ellipse cx="-27.6" cy="-59.5" rx="12.3" ry="2.6" fill="#5b7063" opacity="0.59"/><ellipse cx="-37.3" cy="-67.1" rx="9.3" ry="4.4" fill="#5b7063" opacity="0.40"/><ellipse cx="8.1" cy="-66.0" rx="8.7" ry="2.5" fill="#5b7063" opacity="0.41"/><ellipse cx="3.0" cy="-65.0" rx="15.6" ry="4.5" fill="#5b7063" opacity="0.38"/><ellipse cx="-31.9" cy="-69.1" rx="8.1" ry="4.1" fill="#5b7063" opacity="0.31"/><ellipse cx="-9.8" cy="-69.9" rx="13.1" ry="2.5" fill="#5b7063" opacity="0.67"/><ellipse cx="8.5" cy="-59.1" rx="15.2" ry="5.0" fill="#5b7063" opacity="0.71"/><path d="M1 -67Q15 -82 31.0 -86" fill="none" stroke="#546c61" stroke-width="2.6"/><ellipse cx="-16.3" cy="-80.4" rx="12.7" ry="4.7" fill="#5b7063" opacity="0.39"/><ellipse cx="38.3" cy="-89.7" rx="12.1" ry="2.6" fill="#5b7063" opacity="0.72"/><ellipse cx="-2.2" cy="-83.6" rx="9.9" ry="3.2" fill="#5b7063" opacity="0.49"/><ellipse cx="39.6" cy="-83.9" rx="14.3" ry="2.4" fill="#5b7063" opacity="0.77"/><ellipse cx="24.4" cy="-83.5" rx="8.8" ry="4.9" fill="#5b7063" opacity="0.65"/><ellipse cx="38.3" cy="-87.6" rx="10.8" ry="4.0" fill="#5b7063" opacity="0.45"/><ellipse cx="19.0" cy="-91.4" rx="13.0" ry="3.1" fill="#5b7063" opacity="0.58"/><ellipse cx="4.7" cy="-89.4" rx="12.8" ry="2.6" fill="#5b7063" opacity="0.56"/><ellipse cx="-8.6" cy="-85.9" rx="11.7" ry="3.9" fill="#5b7063" opacity="0.47"/><ellipse cx="18.7" cy="-84.8" rx="13.2" ry="2.1" fill="#5b7063" opacity="0.70"/><path d="M1 -90Q-7 -105 10.5 -109" fill="none" stroke="#546c61" stroke-width="2.6"/><ellipse cx="26.4" cy="-107.8" rx="11.8" ry="3.7" fill="#5b7063" opacity="0.46"/><ellipse cx="9.0" cy="-104.8" rx="10.3" ry="4.8" fill="#5b7063" opacity="0.73"/><ellipse cx="10.1" cy="-110.9" rx="13.0" ry="3.6" fill="#5b7063" opacity="0.31"/><ellipse cx="-33.5" cy="-113.0" rx="12.6" ry="3.9" fill="#5b7063" opacity="0.66"/><ellipse cx="16.6" cy="-104.7" rx="9.0" ry="2.2" fill="#5b7063" opacity="0.55"/><ellipse cx="-30.4" cy="-107.7" rx="9.8" ry="3.3" fill="#5b7063" opacity="0.58"/><ellipse cx="-10.9" cy="-109.5" rx="14.0" ry="3.7" fill="#5b7063" opacity="0.53"/><ellipse cx="-40.3" cy="-110.5" rx="10.4" ry="2.9" fill="#5b7063" opacity="0.69"/><ellipse cx="27.8" cy="-110.9" rx="14.0" ry="2.3" fill="#5b7063" opacity="0.70"/><ellipse cx="-35.4" cy="-112.6" rx="15.1" ry="2.3" fill="#5b7063" opacity="0.52"/><path d="M1 -111Q7 -126 20.5 -130" fill="none" stroke="#546c61" stroke-width="2.6"/><ellipse cx="-15.1" cy="-127.3" rx="14.7" ry="2.7" fill="#5b7063" opacity="0.53"/><ellipse cx="1.7" cy="-127.4" rx="8.4" ry="4.9" fill="#5b7063" opacity="0.74"/><ellipse cx="13.0" cy="-124.2" rx="15.9" ry="2.3" fill="#5b7063" opacity="0.34"/><ellipse cx="5.5" cy="-125.0" rx="13.9" ry="4.9" fill="#5b7063" opacity="0.54"/><ellipse cx="33.7" cy="-125.2" rx="11.0" ry="3.8" fill="#5b7063" opacity="0.59"/><ellipse cx="-17.3" cy="-132.9" rx="9.7" ry="2.5" fill="#5b7063" opacity="0.80"/><ellipse cx="20.0" cy="-125.9" rx="7.5" ry="2.5" fill="#5b7063" opacity="0.78"/><ellipse cx="23.9" cy="-133.3" rx="11.0" ry="2.6" fill="#5b7063" opacity="0.54"/><ellipse cx="-3.2" cy="-128.5" rx="13.0" ry="2.7" fill="#5b7063" opacity="0.72"/><ellipse cx="0.2" cy="-133.9" rx="9.5" ry="3.9" fill="#5b7063" opacity="0.32"/><path d="M1 -132Q-2 -147 8.0 -151" fill="none" stroke="#546c61" stroke-width="2.6"/><ellipse cx="-8.2" cy="-146.6" rx="11.4" ry="4.0" fill="#5b7063" opacity="0.38"/><ellipse cx="-14.0" cy="-151.8" rx="7.3" ry="2.1" fill="#5b7063" opacity="0.78"/><ellipse cx="4.2" cy="-153.4" rx="13.2" ry="3.2" fill="#5b7063" opacity="0.68"/><ellipse cx="-7.0" cy="-149.4" rx="9.4" ry="4.4" fill="#5b7063" opacity="0.46"/><ellipse cx="-13.3" cy="-152.3" rx="12.5" ry="4.4" fill="#5b7063" opacity="0.74"/><ellipse cx="-4.6" cy="-145.8" rx="9.0" ry="4.4" fill="#5b7063" opacity="0.55"/><ellipse cx="-14.3" cy="-153.8" rx="9.7" ry="3.0" fill="#5b7063" opacity="0.69"/><ellipse cx="-8.7" cy="-152.6" rx="15.6" ry="3.8" fill="#5b7063" opacity="0.79"/><ellipse cx="-16.1" cy="-147.3" rx="12.6" ry="4.8" fill="#5b7063" opacity="0.39"/><ellipse cx="-14.0" cy="-153.8" rx="14.6" ry="4.3" fill="#5b7063" opacity="0.71"/></g><g transform="translate(76.5 1746.0) scale(0.800)" opacity="0.34"><path d="M0 0 C -7 -48 8 -75 2 -115 C -1 -136 -5 -144 -1 -169" fill="none" stroke="#50695f" stroke-width="5.2" stroke-linecap="round"/><path d="M1 -45Q-13 -60 2.0 -64" fill="none" stroke="#546c61" stroke-width="2.6"/><ellipse cx="-41.5" cy="-69.9" rx="13.9" ry="3.8" fill="#5b7063" opacity="0.47"/><ellipse cx="6.7" cy="-69.3" rx="12.3" ry="2.0" fill="#5b7063" opacity="0.35"/><ellipse cx="-31.2" cy="-61.7" rx="10.5" ry="4.7" fill="#5b7063" opacity="0.73"/><ellipse cx="9.0" cy="-66.9" rx="9.7" ry="2.9" fill="#5b7063" opacity="0.64"/><ellipse cx="5.5" cy="-59.8" rx="12.9" ry="3.7" fill="#5b7063" opacity="0.65"/><ellipse cx="-41.4" cy="-61.3" rx="13.3" ry="2.8" fill="#5b7063" opacity="0.56"/><ellipse cx="8.5" cy="-67.7" rx="11.5" ry="3.1" fill="#5b7063" opacity="0.31"/><ellipse cx="-19.9" cy="-58.5" rx="15.5" ry="2.3" fill="#5b7063" opacity="0.69"/><ellipse cx="-36.5" cy="-59.0" rx="15.3" ry="3.9" fill="#5b7063" opacity="0.58"/><ellipse cx="-38.4" cy="-63.3" rx="14.2" ry="3.4" fill="#5b7063" opacity="0.36"/><path d="M1 -67Q15 -82 31.0 -86" fill="none" stroke="#546c61" stroke-width="2.6"/><ellipse cx="-0.9" cy="-86.2" rx="9.0" ry="2.6" fill="#5b7063" opacity="0.36"/><ellipse cx="46.7" cy="-86.9" rx="11.8" ry="2.6" fill="#5b7063" opacity="0.74"/><ellipse cx="26.8" cy="-86.9" rx="14.3" ry="2.3" fill="#5b7063" opacity="0.36"/><ellipse cx="-5.5" cy="-85.3" rx="9.0" ry="4.6" fill="#5b7063" opacity="0.79"/><ellipse cx="34.6" cy="-85.6" rx="10.1" ry="4.9" fill="#5b7063" opacity="0.45"/><ellipse cx="29.4" cy="-84.4" rx="12.4" ry="3.1" fill="#5b7063" opacity="0.56"/><ellipse cx="1.2" cy="-91.6" rx="12.5" ry="4.5" fill="#5b7063" opacity="0.37"/><ellipse cx="-2.3" cy="-91.1" rx="13.0" ry="2.6" fill="#5b7063" opacity="0.69"/><ellipse cx="2.9" cy="-83.0" rx="11.1" ry="2.1" fill="#5b7063" opacity="0.74"/><ellipse cx="39.4" cy="-86.7" rx="9.8" ry="2.9" fill="#5b7063" opacity="0.60"/><path d="M1 -90Q-7 -105 10.5 -109" fill="none" stroke="#546c61" stroke-width="2.6"/><ellipse cx="8.1" cy="-103.4" rx="8.8" ry="4.5" fill="#5b7063" opacity="0.52"/><ellipse cx="13.4" cy="-107.2" rx="7.7" ry="4.0" fill="#5b7063" opacity="0.57"/><ellipse cx="13.7" cy="-111.9" rx="8.7" ry="2.5" fill="#5b7063" opacity="0.51"/><ellipse cx="-13.9" cy="-108.0" rx="13.1" ry="4.3" fill="#5b7063" opacity="0.53"/><ellipse cx="23.3" cy="-111.5" rx="14.0" ry="2.1" fill="#5b7063" opacity="0.38"/><ellipse cx="-2.0" cy="-113.0" rx="8.1" ry="2.7" fill="#5b7063" opacity="0.73"/><ellipse cx="27.1" cy="-111.0" rx="13.1" ry="4.4" fill="#5b7063" opacity="0.72"/><ellipse cx="26.4" cy="-104.1" rx="9.8" ry="2.6" fill="#5b7063" opacity="0.53"/><ellipse cx="18.1" cy="-109.4" rx="12.5" ry="2.3" fill="#5b7063" opacity="0.59"/><ellipse cx="-13.2" cy="-114.6" rx="8.5" ry="3.1" fill="#5b7063" opacity="0.46"/><path d="M1 -111Q7 -126 20.5 -130" fill="none" stroke="#546c61" stroke-width="2.6"/><ellipse cx="26.5" cy="-132.8" rx="14.1" ry="4.2" fill="#5b7063" opacity="0.73"/><ellipse cx="-8.1" cy="-132.9" rx="15.7" ry="2.4" fill="#5b7063" opacity="0.74"/><ellipse cx="18.4" cy="-127.1" rx="11.9" ry="2.0" fill="#5b7063" opacity="0.56"/><ellipse cx="-3.5" cy="-132.3" rx="14.7" ry="2.8" fill="#5b7063" opacity="0.31"/><ellipse cx="-19.2" cy="-124.4" rx="8.4" ry="3.0" fill="#5b7063" opacity="0.37"/><ellipse cx="-13.2" cy="-133.1" rx="9.9" ry="3.3" fill="#5b7063" opacity="0.67"/><ellipse cx="13.5" cy="-126.6" rx="11.5" ry="3.1" fill="#5b7063" opacity="0.54"/><ellipse cx="0.8" cy="-129.5" rx="9.7" ry="4.1" fill="#5b7063" opacity="0.58"/><ellipse cx="-10.4" cy="-129.4" rx="8.8" ry="4.2" fill="#5b7063" opacity="0.79"/><ellipse cx="-9.9" cy="-134.7" rx="13.6" ry="4.3" fill="#5b7063" opacity="0.33"/><path d="M1 -132Q-2 -147 8.0 -151" fill="none" stroke="#546c61" stroke-width="2.6"/><ellipse cx="-21.7" cy="-149.4" rx="14.5" ry="4.4" fill="#5b7063" opacity="0.35"/><ellipse cx="-5.3" cy="-145.3" rx="10.9" ry="3.6" fill="#5b7063" opacity="0.36"/><ellipse cx="9.6" cy="-153.9" rx="15.9" ry="3.2" fill="#5b7063" opacity="0.77"/><ellipse cx="-8.8" cy="-151.8" rx="15.3" ry="4.1" fill="#5b7063" opacity="0.43"/><ellipse cx="-4.7" cy="-149.9" rx="14.4" ry="5.0" fill="#5b7063" opacity="0.65"/><ellipse cx="11.6" cy="-151.9" rx="15.0" ry="2.2" fill="#5b7063" opacity="0.72"/><ellipse cx="0.1" cy="-153.4" rx="7.5" ry="4.7" fill="#5b7063" opacity="0.79"/><ellipse cx="7.0" cy="-156.6" rx="7.7" ry="3.0" fill="#5b7063" opacity="0.48"/><ellipse cx="-7.9" cy="-150.9" rx="12.1" ry="2.2" fill="#5b7063" opacity="0.75"/><ellipse cx="16.2" cy="-153.8" rx="11.9" ry="3.6" fill="#5b7063" opacity="0.63"/></g><g transform="translate(859.5 1706.4) scale(1.200)" opacity="0.31"><path d="M0 0 C -7 -48 8 -75 2 -115 C -1 -136 -5 -144 -1 -169" fill="none" stroke="#50695f" stroke-width="5.2" stroke-linecap="round"/><path d="M1 -45Q-13 -60 2.0 -64" fill="none" stroke="#546c61" stroke-width="2.6"/><ellipse cx="3.6" cy="-66.9" rx="9.3" ry="3.9" fill="#5b7063" opacity="0.56"/><ellipse cx="-14.8" cy="-64.1" rx="15.7" ry="3.5" fill="#5b7063" opacity="0.50"/><ellipse cx="-27.6" cy="-67.0" rx="12.7" ry="3.3" fill="#5b7063" opacity="0.47"/><ellipse cx="-0.1" cy="-58.9" rx="8.5" ry="3.0" fill="#5b7063" opacity="0.41"/><ellipse cx="-20.6" cy="-63.1" rx="14.7" ry="2.3" fill="#5b7063" opacity="0.42"/><ellipse cx="-27.1" cy="-66.0" rx="7.3" ry="3.2" fill="#5b7063" opacity="0.40"/><ellipse cx="-31.9" cy="-65.5" rx="9.8" ry="2.6" fill="#5b7063" opacity="0.71"/><ellipse cx="-11.3" cy="-63.3" rx="12.7" ry="4.9" fill="#5b7063" opacity="0.78"/><ellipse cx="-23.2" cy="-58.3" rx="9.6" ry="2.9" fill="#5b7063" opacity="0.46"/><ellipse cx="-39.8" cy="-67.7" rx="7.6" ry="3.6" fill="#5b7063" opacity="0.32"/><path d="M1 -67Q15 -82 31.0 -86" fill="none" stroke="#546c61" stroke-width="2.6"/><ellipse cx="-11.4" cy="-86.1" rx="10.6" ry="3.1" fill="#5b7063" opacity="0.73"/><ellipse cx="3.4" cy="-82.4" rx="14.0" ry="4.0" fill="#5b7063" opacity="0.49"/><ellipse cx="44.1" cy="-85.3" rx="7.1" ry="3.1" fill="#5b7063" opacity="0.64"/><ellipse cx="36.6" cy="-84.7" rx="15.8" ry="3.4" fill="#5b7063" opacity="0.43"/><ellipse cx="14.8" cy="-81.9" rx="11.6" ry="2.3" fill="#5b7063" opacity="0.78"/><ellipse cx="9.3" cy="-90.5" rx="13.2" ry="2.4" fill="#5b7063" opacity="0.72"/><ellipse cx="5.2" cy="-81.4" rx="8.0" ry="3.8" fill="#5b7063" opacity="0.60"/><ellipse cx="34.1" cy="-85.2" rx="14.9" ry="2.9" fill="#5b7063" opacity="0.71"/><ellipse cx="12.2" cy="-82.9" rx="9.3" ry="2.3" fill="#5b7063" opacity="0.31"/><ellipse cx="19.7" cy="-90.5" rx="13.9" ry="4.5" fill="#5b7063" opacity="0.47"/><path d="M1 -90Q-7 -105 10.5 -109" fill="none" stroke="#546c61" stroke-width="2.6"/><ellipse cx="5.9" cy="-113.4" rx="11.6" ry="3.3" fill="#5b7063" opacity="0.77"/><ellipse cx="21.9" cy="-103.9" rx="12.0" ry="4.7" fill="#5b7063" opacity="0.58"/><ellipse cx="-10.7" cy="-108.4" rx="9.6" ry="2.3" fill="#5b7063" opacity="0.72"/><ellipse cx="-40.9" cy="-109.2" rx="13.2" ry="4.6" fill="#5b7063" opacity="0.39"/><ellipse cx="2.5" cy="-114.6" rx="15.4" ry="4.0" fill="#5b7063" opacity="0.35"/><ellipse cx="13.1" cy="-109.8" rx="10.2" ry="2.6" fill="#5b7063" opacity="0.37"/><ellipse cx="-13.5" cy="-109.2" rx="13.4" ry="2.1" fill="#5b7063" opacity="0.78"/><ellipse cx="-24.3" cy="-112.3" rx="8.6" ry="2.6" fill="#5b7063" opacity="0.53"/><ellipse cx="-4.4" cy="-113.2" rx="9.7" ry="2.3" fill="#5b7063" opacity="0.67"/><ellipse cx="27.4" cy="-104.6" rx="13.4" ry="3.5" fill="#5b7063" opacity="0.45"/><path d="M1 -111Q7 -126 20.5 -130" fill="none" stroke="#546c61" stroke-width="2.6"/><ellipse cx="0.2" cy="-135.1" rx="8.3" ry="3.4" fill="#5b7063" opacity="0.50"/><ellipse cx="-1.7" cy="-125.9" rx="7.2" ry="4.9" fill="#5b7063" opacity="0.60"/><ellipse cx="-17.6" cy="-129.1" rx="8.0" ry="3.2" fill="#5b7063" opacity="0.61"/><ellipse cx="7.7" cy="-134.5" rx="8.7" ry="5.0" fill="#5b7063" opacity="0.41"/><ellipse cx="26.9" cy="-128.5" rx="9.9" ry="4.0" fill="#5b7063" opacity="0.63"/><ellipse cx="29.3" cy="-128.4" rx="9.1" ry="3.3" fill="#5b7063" opacity="0.50"/><ellipse cx="15.8" cy="-124.8" rx="9.5" ry="2.4" fill="#5b7063" opacity="0.36"/><ellipse cx="26.9" cy="-134.5" rx="14.5" ry="4.7" fill="#5b7063" opacity="0.75"/><ellipse cx="-2.3" cy="-133.3" rx="7.0" ry="4.8" fill="#5b7063" opacity="0.41"/><ellipse cx="23.7" cy="-128.7" rx="15.3" ry="4.3" fill="#5b7063" opacity="0.46"/><path d="M1 -132Q-2 -147 8.0 -151" fill="none" stroke="#546c61" stroke-width="2.6"/><ellipse cx="0.4" cy="-150.0" rx="9.6" ry="2.6" fill="#5b7063" opacity="0.49"/><ellipse cx="-14.7" cy="-148.3" rx="12.1" ry="3.0" fill="#5b7063" opacity="0.48"/><ellipse cx="-1.2" cy="-145.2" rx="12.3" ry="2.8" fill="#5b7063" opacity="0.57"/><ellipse cx="13.1" cy="-148.5" rx="12.2" ry="4.1" fill="#5b7063" opacity="0.57"/><ellipse cx="-5.0" cy="-153.6" rx="7.7" ry="2.3" fill="#5b7063" opacity="0.47"/><ellipse cx="8.8" cy="-154.8" rx="12.2" ry="3.9" fill="#5b7063" opacity="0.44"/><ellipse cx="-19.4" cy="-154.8" rx="13.8" ry="4.3" fill="#5b7063" opacity="0.52"/><ellipse cx="-5.8" cy="-146.7" rx="11.8" ry="4.3" fill="#5b7063" opacity="0.36"/><ellipse cx="-11.0" cy="-150.5" rx="12.3" ry="4.3" fill="#5b7063" opacity="0.67"/><ellipse cx="-14.9" cy="-155.9" rx="8.5" ry="3.6" fill="#5b7063" opacity="0.73"/></g><g transform="translate(904.5 1620.0) scale(1.600)" opacity="0.3"><path d="M0 0 C -7 -48 8 -75 2 -115 C -1 -136 -5 -144 -1 -169" fill="none" stroke="#50695f" stroke-width="5.2" stroke-linecap="round"/><path d="M1 -45Q-13 -60 2.0 -64" fill="none" stroke="#546c61" stroke-width="2.6"/><ellipse cx="-8.5" cy="-58.4" rx="8.5" ry="2.5" fill="#5b7063" opacity="0.68"/><ellipse cx="-5.2" cy="-58.6" rx="11.6" ry="2.6" fill="#5b7063" opacity="0.53"/><ellipse cx="-5.3" cy="-59.0" rx="10.4" ry="4.1" fill="#5b7063" opacity="0.31"/><ellipse cx="-37.1" cy="-65.4" rx="12.2" ry="3.6" fill="#5b7063" opacity="0.78"/><ellipse cx="3.3" cy="-68.3" rx="12.7" ry="4.9" fill="#5b7063" opacity="0.73"/><ellipse cx="-42.5" cy="-64.5" rx="10.5" ry="3.3" fill="#5b7063" opacity="0.45"/><ellipse cx="13.3" cy="-62.4" rx="12.9" ry="2.1" fill="#5b7063" opacity="0.77"/><ellipse cx="-41.0" cy="-63.3" rx="10.2" ry="4.3" fill="#5b7063" opacity="0.31"/><ellipse cx="13.6" cy="-63.7" rx="15.5" ry="2.9" fill="#5b7063" opacity="0.77"/><ellipse cx="14.1" cy="-63.4" rx="14.3" ry="2.2" fill="#5b7063" opacity="0.31"/><path d="M1 -67Q15 -82 31.0 -86" fill="none" stroke="#546c61" stroke-width="2.6"/><ellipse cx="23.6" cy="-80.8" rx="15.2" ry="4.2" fill="#5b7063" opacity="0.55"/><ellipse cx="-0.7" cy="-84.4" rx="8.2" ry="4.2" fill="#5b7063" opacity="0.56"/><ellipse cx="0.2" cy="-84.2" rx="7.4" ry="4.4" fill="#5b7063" opacity="0.63"/><ellipse cx="10.3" cy="-83.9" rx="9.6" ry="2.5" fill="#5b7063" opacity="0.51"/><ellipse cx="24.7" cy="-82.3" rx="11.5" ry="4.8" fill="#5b7063" opacity="0.44"/><ellipse cx="16.7" cy="-88.8" rx="7.6" ry="2.6" fill="#5b7063" opacity="0.67"/><ellipse cx="22.1" cy="-89.9" rx="10.0" ry="2.5" fill="#5b7063" opacity="0.53"/><ellipse cx="45.0" cy="-88.0" rx="11.0" ry="3.4" fill="#5b7063" opacity="0.43"/><ellipse cx="-9.2" cy="-84.8" rx="9.8" ry="4.0" fill="#5b7063" opacity="0.79"/><ellipse cx="-16.3" cy="-80.7" rx="8.0" ry="4.7" fill="#5b7063" opacity="0.49"/><path d="M1 -90Q-7 -105 10.5 -109" fill="none" stroke="#546c61" stroke-width="2.6"/><ellipse cx="21.6" cy="-104.6" rx="14.7" ry="2.9" fill="#5b7063" opacity="0.42"/><ellipse cx="-9.2" cy="-105.6" rx="10.8" ry="2.6" fill="#5b7063" opacity="0.68"/><ellipse cx="-25.1" cy="-106.4" rx="8.7" ry="4.7" fill="#5b7063" opacity="0.77"/><ellipse cx="-13.6" cy="-111.4" rx="10.4" ry="3.7" fill="#5b7063" opacity="0.36"/><ellipse cx="-38.9" cy="-113.5" rx="14.3" ry="2.8" fill="#5b7063" opacity="0.75"/><ellipse cx="4.7" cy="-107.9" rx="9.0" ry="4.8" fill="#5b7063" opacity="0.33"/><ellipse cx="-0.1" cy="-109.2" rx="15.0" ry="3.3" fill="#5b7063" opacity="0.73"/><ellipse cx="-22.2" cy="-106.6" rx="12.8" ry="3.8" fill="#5b7063" opacity="0.47"/><ellipse cx="19.2" cy="-110.2" rx="14.5" ry="3.7" fill="#5b7063" opacity="0.69"/><ellipse cx="-33.4" cy="-105.7" rx="7.2" ry="2.3" fill="#5b7063" opacity="0.54"/><path d="M1 -111Q7 -126 20.5 -130" fill="none" stroke="#546c61" stroke-width="2.6"/><ellipse cx="-10.9" cy="-127.6" rx="13.5" ry="2.1" fill="#5b7063" opacity="0.45"/><ellipse cx="9.0" cy="-125.2" rx="14.6" ry="3.8" fill="#5b7063" opacity="0.51"/><ellipse cx="31.2" cy="-133.2" rx="11.4" ry="2.0" fill="#5b7063" opacity="0.65"/><ellipse cx="3.0" cy="-131.5" rx="13.6" ry="2.0" fill="#5b7063" opacity="0.56"/><ellipse cx="29.0" cy="-135.8" rx="12.4" ry="3.6" fill="#5b7063" opacity="0.69"/><ellipse cx="-13.9" cy="-126.0" rx="12.7" ry="3.3" fill="#5b7063" opacity="0.31"/><ellipse cx="32.7" cy="-129.3" rx="11.0" ry="2.6" fill="#5b7063" opacity="0.57"/><ellipse cx="-15.8" cy="-127.0" rx="9.4" ry="4.0" fill="#5b7063" opacity="0.41"/><ellipse cx="-6.2" cy="-130.0" rx="11.7" ry="3.7" fill="#5b7063" opacity="0.63"/><ellipse cx="-18.9" cy="-135.2" rx="7.7" ry="4.1" fill="#5b7063" opacity="0.66"/><path d="M1 -132Q-2 -147 8.0 -151" fill="none" stroke="#546c61" stroke-width="2.6"/><ellipse cx="-8.8" cy="-147.6" rx="16.0" ry="5.0" fill="#5b7063" opacity="0.61"/><ellipse cx="2.4" cy="-156.4" rx="7.2" ry="3.1" fill="#5b7063" opacity="0.73"/><ellipse cx="0.1" cy="-151.7" rx="12.4" ry="3.3" fill="#5b7063" opacity="0.72"/><ellipse cx="-14.3" cy="-148.2" rx="14.2" ry="4.1" fill="#5b7063" opacity="0.38"/><ellipse cx="1.7" cy="-147.0" rx="7.4" ry="4.4" fill="#5b7063" opacity="0.64"/><ellipse cx="-16.2" cy="-151.8" rx="12.8" ry="3.2" fill="#5b7063" opacity="0.66"/><ellipse cx="17.7" cy="-153.7" rx="9.3" ry="2.9" fill="#5b7063" opacity="0.59"/><ellipse cx="6.9" cy="-147.1" rx="12.4" ry="3.9" fill="#5b7063" opacity="0.63"/><ellipse cx="-12.3" cy="-154.1" rx="12.8" ry="3.4" fill="#5b7063" opacity="0.78"/><ellipse cx="15.9" cy="-153.8" rx="15.7" ry="2.5" fill="#5b7063" opacity="0.61"/></g><g transform="translate(798.3 1659.6000000000001) scale(0.49)" opacity=".32" stroke="#677263" stroke-linecap="round"><path d="M-48 -45Q-26 -40 0 -68Q25 -40 48 -45L36 -35H-36Z" fill="#7d8671" stroke-width="1.5"/><path d="M-31 -33V0M-11 -33V0M11 -33V0M31 -33V0M-40 1H40M-46 6H46" stroke-width="3" fill="none"/></g><g stroke="#708377" fill="#708377" opacity=".18" transform="translate(-16.2, 540.0)"><path d="M0 0Q13.5 -198.0 90.0 -414.0" stroke-width="2" fill="none"/><path d="M9.0 -36.0q-7.56 -64.8 -25.2 -81.0q3.78 44.550000000000004 25.2 81.0" stroke="none"/><path d="M9.0 -36.0q7.56 -64.8 25.2 -81.0q-3.78 44.550000000000004 -25.2 81.0" stroke="none"/><path d="M17.099999999999998 -81.0q-7.56 -64.8 -25.2 -81.0q3.78 44.550000000000004 25.2 81.0" stroke="none"/><path d="M17.099999999999998 -81.0q7.56 -64.8 25.2 -81.0q-3.78 44.550000000000004 -25.2 81.0" stroke="none"/><path d="M25.199999999999996 -126.00000000000001q-7.56 -64.8 -25.2 -81.0q3.78 44.550000000000004 25.2 81.0" stroke="none"/><path d="M25.199999999999996 -126.00000000000001q7.56 -64.8 25.2 -81.0q-3.78 44.550000000000004 -25.2 81.0" stroke="none"/><path d="M33.3 -171.00000000000003q-7.56 -64.8 -25.2 -81.0q3.78 44.550000000000004 25.2 81.0" stroke="none"/><path d="M33.3 -171.00000000000003q7.56 -64.8 25.2 -81.0q-3.78 44.550000000000004 -25.2 81.0" stroke="none"/><path d="M41.4 -216.00000000000003q-7.56 -64.8 -25.2 -81.0q3.78 44.550000000000004 25.2 81.0" stroke="none"/><path d="M41.4 -216.00000000000003q7.56 -64.8 25.2 -81.0q-3.78 44.550000000000004 -25.2 81.0" stroke="none"/><path d="M49.5 -261.0q-7.56 -64.8 -25.2 -81.0q3.78 44.550000000000004 25.2 81.0" stroke="none"/><path d="M49.5 -261.0q7.56 -64.8 25.2 -81.0q-3.78 44.550000000000004 -25.2 81.0" stroke="none"/><path d="M57.59999999999999 -306.0q-7.56 -64.8 -25.2 -81.0q3.78 44.550000000000004 25.2 81.0" stroke="none"/><path d="M57.59999999999999 -306.0q7.56 -64.8 25.2 -81.0q-3.78 44.550000000000004 -25.2 81.0" stroke="none"/><path d="M65.7 -351.0q-7.56 -64.8 -25.2 -81.0q3.78 44.550000000000004 25.2 81.0" stroke="none"/><path d="M65.7 -351.0q7.56 -64.8 25.2 -81.0q-3.78 44.550000000000004 -25.2 81.0" stroke="none"/></g><ellipse cx="450.0" cy="666.0" rx="387.0" ry="1062.0" fill="url(#light)"/><rect width="900" height="1800" filter="url(#texture)" opacity=".027" style="mix-blend-mode:multiply"/></svg>